<svg width="23" height="22" viewBox="0 0 23 22" fill="none" xmlns="http://www.w3.org/2000/svg">
<path d="M16.867 8.08529L13.6852 5.12375C13.643 5.08447 13.5928 5.05333 13.5377 5.0321C13.4825 5.01086 13.4233 4.99996 13.3636 5H7.90909C7.66799 5 7.43675 5.08915 7.26627 5.24783C7.09578 5.40652 7 5.62174 7 5.84615V15.1538C7 15.3783 7.09578 15.5935 7.26627 15.7522C7.43675 15.9109 7.66799 16 7.90909 16H16.0909C16.332 16 16.5632 15.9109 16.7337 15.7522C16.9042 15.5935 17 15.3783 17 15.1538V8.38462C17 8.32904 16.9883 8.274 16.9655 8.22264C16.9427 8.17128 16.9092 8.12461 16.867 8.08529ZM13.8182 6.44428L15.4483 7.96154H13.8182V6.44428ZM16.0909 15.1538H7.90909V5.84615H12.9091V8.38462C12.9091 8.49682 12.957 8.60443 13.0422 8.68378C13.1275 8.76312 13.2431 8.80769 13.3636 8.80769H16.0909V15.1538ZM13.6852 11.0468C13.7275 11.0861 13.761 11.1328 13.7838 11.1842C13.8067 11.2355 13.8184 11.2906 13.8184 11.3462C13.8184 11.4017 13.8067 11.4568 13.7838 11.5081C13.761 11.5595 13.7275 11.6062 13.6852 11.6455C13.643 11.6848 13.5929 11.716 13.5377 11.7372C13.4825 11.7585 13.4234 11.7695 13.3636 11.7695C13.3039 11.7695 13.2448 11.7585 13.1896 11.7372C13.1344 11.716 13.0843 11.6848 13.042 11.6455L12.4545 11.0981V13.4615C12.4545 13.5737 12.4067 13.6814 12.3214 13.7607C12.2362 13.84 12.1206 13.8846 12 13.8846C11.8794 13.8846 11.7638 13.84 11.6786 13.7607C11.5933 13.6814 11.5455 13.5737 11.5455 13.4615V11.0981L10.958 11.6455C10.9157 11.6848 10.8656 11.716 10.8104 11.7372C10.7552 11.7585 10.6961 11.7695 10.6364 11.7695C10.5766 11.7695 10.5175 11.7585 10.4623 11.7372C10.4071 11.716 10.357 11.6848 10.3148 11.6455C10.2725 11.6062 10.239 11.5595 10.2162 11.5081C10.1933 11.4568 10.1816 11.4017 10.1816 11.3462C10.1816 11.2906 10.1933 11.2355 10.2162 11.1842C10.239 11.1328 10.2725 11.0861 10.3148 11.0468L11.6784 9.7776C11.7206 9.73826 11.7708 9.70705 11.8259 9.68576C11.8811 9.66447 11.9403 9.65351 12 9.65351C12.0597 9.65351 12.1189 9.66447 12.1741 9.68576C12.2292 9.70705 12.2794 9.73826 12.3216 9.7776L13.6852 11.0468Z" fill="#004F9C"/>
<ellipse cx="11.5" cy="11" rx="11.5" ry="11" fill="#3361CD" fill-opacity="0.36"/>
</svg>
