<?xml version="1.0" standalone="no"?>
<!DOCTYPE svg PUBLIC "-//W3C//DTD SVG 20010904//EN"
 "http://www.w3.org/TR/2001/REC-SVG-20010904/DTD/svg10.dtd">
<svg version="1.0" xmlns="http://www.w3.org/2000/svg"
 width="64.000000pt" height="64.000000pt" viewBox="0 0 64.000000 64.000000"
 preserveAspectRatio="xMidYMid meet">

<g transform="translate(0.000000,64.000000) scale(0.100000,-0.100000)"
fill="#000000" stroke="none">
<path d="M5 600 c-13 -21 8 -30 66 -30 32 0 59 -2 59 -5 0 -2 21 -81 46 -175
42 -155 45 -172 31 -188 -11 -12 -15 -36 -14 -82 2 -58 4 -66 28 -79 24 -13
29 -13 53 2 16 11 26 27 26 42 0 25 1 25 96 25 81 0 95 -2 90 -15 -3 -8 5 -27
18 -41 18 -22 28 -26 49 -20 53 13 61 87 11 106 -14 6 -95 10 -180 10 -130 0
-154 2 -154 15 0 13 24 15 159 15 88 0 162 4 165 8 6 10 86 310 86 323 0 5
-94 9 -229 9 l-229 0 -14 43 -13 42 -72 3 c-42 2 -74 -1 -78 -8z m585 -125 c0
-8 -14 -69 -32 -135 l-31 -120 -133 0 -133 0 -11 43 c-14 52 -50 186 -56 210
-5 16 9 17 195 17 172 0 201 -2 201 -15z m-330 -385 c0 -11 -7 -20 -15 -20 -8
0 -15 9 -15 20 0 11 7 20 15 20 8 0 15 -9 15 -20z m296 9 c10 -17 -13 -36 -27
-22 -12 12 -4 33 11 33 5 0 12 -5 16 -11z"/>
</g>
</svg>
