<svg width="25" height="18" viewBox="0 0 25 18" fill="none" xmlns="http://www.w3.org/2000/svg">
<path d="M4.51794 13.601C4.41456 13.6007 4.31855 13.5641 4.24766 13.5036C4.17729 13.4435 4.13754 13.3655 4.12841 13.287L4.12833 13.2863C3.97165 11.9541 4.17024 10.6053 4.70678 9.36399C5.2434 8.12248 6.10147 7.02704 7.20416 6.18064C8.30697 5.33414 9.61827 4.76461 11.0172 4.5268C12.4162 4.28899 13.8555 4.39098 15.2013 4.82291L15.2013 4.82296L15.2085 4.82515C15.2604 4.84097 15.3071 4.86605 15.3463 4.89781C15.3853 4.92953 15.4158 4.96705 15.4372 5.00732C15.4586 5.04752 15.4707 5.09021 15.474 5.13301C15.4772 5.17579 15.4715 5.2191 15.4567 5.26074C15.442 5.30245 15.4181 5.34256 15.3851 5.37819C15.3521 5.41388 15.3107 5.44436 15.2625 5.46668C15.2142 5.48902 15.1608 5.5024 15.1055 5.50534C15.0502 5.50829 14.9951 5.50068 14.9438 5.48337L14.9438 5.48331L14.9363 5.4809C14.1517 5.22984 13.3298 5.10241 12.5028 5.1034L4.51794 13.601ZM4.51794 13.601C4.51808 13.601 4.51822 13.601 4.51836 13.601L4.53708 13.6009L4.54557 13.6007L4.55152 13.5998L4.5645 13.5984C4.67533 13.5867 4.77073 13.5341 4.83276 13.4604C4.89398 13.3876 4.91895 13.2996 4.90917 13.2154L4.90915 13.2152C4.87789 12.9449 4.86226 12.6733 4.86232 12.4013V12.4009C4.86455 10.458 5.67651 8.60052 7.1114 7.23454C8.54543 5.86937 10.4847 5.10552 12.5027 5.1034L4.51794 13.601ZM22.6888 2.92825L23.1472 2.72876L22.6888 2.92825C22.7065 2.96896 22.7152 3.01165 22.7152 3.05413C22.7152 3.09661 22.7065 3.13931 22.6888 3.18001C22.671 3.22078 22.6443 3.25947 22.6089 3.29319L11.8974 13.4903C11.862 13.524 11.8185 13.5521 11.769 13.5716C11.7195 13.5911 11.6656 13.6014 11.6107 13.6014C11.5557 13.6014 11.5018 13.5911 11.4523 13.5716C11.4028 13.5521 11.3594 13.524 11.3239 13.4903C11.2885 13.4566 11.2618 13.4179 11.244 13.3771L10.7855 13.5766L11.244 13.3771C11.2263 13.3364 11.2176 13.2937 11.2176 13.2512C11.2176 13.2087 11.2263 13.166 11.244 13.1253L10.7855 12.9258L11.244 13.1253C11.2618 13.0846 11.2885 13.0459 11.3239 13.0122L22.0353 2.81507C22.0708 2.7813 22.1142 2.75329 22.1637 2.73377C22.2133 2.71423 22.2672 2.7039 22.3221 2.7039C22.3771 2.7039 22.4309 2.71423 22.4805 2.73377C22.53 2.75329 22.5734 2.7813 22.6089 2.81507C22.6443 2.84879 22.671 2.88748 22.6888 2.92825ZM23.1918 7.22132L23.1923 7.2212C23.9297 8.59866 24.3652 10.1031 24.4733 11.6435C24.5815 13.1846 24.3599 14.731 23.8213 16.1892L23.8211 16.1897C23.736 16.4209 23.5759 16.6257 23.3582 16.7726C23.1402 16.9196 22.8769 17.0002 22.6047 17H22.6044L2.40215 17C2.40189 17 2.40163 17 2.40137 17C2.12891 16.9993 1.86549 16.9181 1.64736 16.7708C1.42931 16.6235 1.26866 16.4184 1.18292 16.1867L1.18275 16.1863C0.385864 14.0394 0.284153 11.7154 0.890244 9.51361C1.49641 7.31153 2.78376 5.32938 4.5901 3.82558C6.39671 2.32155 8.63871 1.36599 11.0268 1.08589C13.4149 0.805779 15.8355 1.21452 17.9746 2.25759L17.9745 2.25777L17.9871 2.26348C18.036 2.28566 18.078 2.3162 18.1115 2.3521L18.4772 2.01112L18.1115 2.3521C18.1449 2.38793 18.1691 2.42836 18.184 2.47041C18.199 2.51241 18.2047 2.5561 18.2013 2.59923C18.1979 2.64239 18.1855 2.68543 18.1637 2.72589L18.6038 2.96309L18.1637 2.7259C18.1418 2.76644 18.1107 2.80413 18.0709 2.83582C18.0311 2.86756 17.9836 2.89241 17.9309 2.90776C17.8782 2.92311 17.8223 2.92835 17.7667 2.92287C17.7112 2.9174 17.6583 2.90145 17.6113 2.87679L17.6114 2.87662L17.5989 2.87054C16.0521 2.11388 14.3413 1.71478 12.6045 1.70438V1.70438H12.6015L12.5033 1.70437L12.502 1.70438C10.7148 1.70914 8.9538 2.12046 7.36545 2.90519C5.77701 3.68996 4.40615 4.82606 3.36872 6.22071C2.33118 7.61551 1.65754 9.22814 1.40597 10.9245C1.15438 12.6209 1.33252 14.3497 1.92489 15.9662L2.04503 16.294L2.39418 16.2941L22.6009 16.3015L22.949 16.3017L23.0699 15.9753C23.5785 14.6026 23.7891 13.1451 23.6882 11.6915C23.5874 10.2379 23.1774 8.81996 22.4841 7.52382L22.4834 7.5226C22.462 7.48285 22.4496 7.44062 22.446 7.39824C22.4424 7.35589 22.4475 7.31298 22.4615 7.27163C22.4755 7.23021 22.4985 7.19028 22.5303 7.15458C22.5622 7.11883 22.6025 7.08802 22.6496 7.06502C22.6968 7.04201 22.7492 7.02762 22.8039 7.02339C22.8585 7.01917 22.9133 7.02528 22.9648 7.04106C23.0162 7.05683 23.0624 7.08167 23.1012 7.11307C23.14 7.14443 23.1704 7.18151 23.1918 7.22132ZM23.6379 17.187C23.9399 16.9832 24.1679 16.695 24.2903 16.3624L22.6044 17.5C22.9746 17.5002 23.3358 17.3908 23.6379 17.187Z" fill="#1E1E1E" stroke="#1E1E1E"/>
</svg>
