<svg width="22" height="22" viewBox="0 0 22 22" fill="none" xmlns="http://www.w3.org/2000/svg">
<path d="M17.9153 14.2939L17.9154 14.2939C19.5282 13.4818 20.6667 12.317 20.6667 11V9.24V8.192L19.8521 8.85136C18.0155 10.338 14.7992 11.3462 11 11.3462C7.20027 11.3462 3.98453 10.342 2.14842 8.85177L1.33333 8.19024V9.24V11C1.33333 12.317 2.47185 13.4818 4.0846 14.2939L4.08468 14.2939C5.94265 15.2291 8.40056 15.7308 11 15.7308C13.5994 15.7308 16.0574 15.2291 17.9153 14.2939ZM4.08468 2.62915L4.0846 2.62919C2.47185 3.44131 1.33333 4.60607 1.33333 5.92308C1.33333 7.24008 2.47185 8.40485 4.0846 9.21696L4.08468 9.217C5.94265 10.1522 8.40056 10.6538 11 10.6538C13.5994 10.6538 16.0574 10.1522 17.9153 9.217L17.9154 9.21696C19.5282 8.40485 20.6667 7.24008 20.6667 5.92308C20.6667 4.60607 19.5282 3.44131 17.9154 2.62919L17.9153 2.62915C16.0574 1.69397 13.5994 1.19231 11 1.19231C8.40056 1.19231 5.94265 1.69397 4.08468 2.62915ZM17.9153 19.3708L17.9154 19.3708C19.5282 18.5587 20.6667 17.3939 20.6667 16.0769V14.3169V13.2689L19.8521 13.9283C18.0155 15.4149 14.7992 16.4231 11 16.4231C7.20027 16.4231 3.98453 15.4189 2.14842 13.9287L1.33333 13.2672V14.3169V16.0769C1.33333 17.3939 2.47185 18.5587 4.0846 19.3708L4.08468 19.3708C5.94265 20.306 8.40056 20.8077 11 20.8077C13.5994 20.8077 16.0574 20.306 17.9153 19.3708ZM0.5 5.92308C0.5 4.52972 1.51737 3.18302 3.42404 2.15634C5.31495 1.13815 7.97951 0.5 11 0.5C14.0205 0.5 16.685 1.13815 18.576 2.15634C20.4826 3.18302 21.5 4.52972 21.5 5.92308V16.0769C21.5 17.4703 20.4826 18.817 18.576 19.8437C16.685 20.8619 14.0205 21.5 11 21.5C7.97951 21.5 5.31495 20.8619 3.42404 19.8437C1.51737 18.817 0.5 17.4703 0.5 16.0769V5.92308Z" fill="white" stroke="black"/>
</svg>
