<svg width="22" height="24" viewBox="0 0 22 24" fill="none" xmlns="http://www.w3.org/2000/svg">
<path d="M20.625 3.92883H16.25V3.05383C16.25 2.35764 15.9734 1.68996 15.4812 1.19768C14.9889 0.705395 14.3212 0.428833 13.625 0.428833H8.375C7.67881 0.428833 7.01113 0.705395 6.51884 1.19768C6.02656 1.68996 5.75 2.35764 5.75 3.05383V3.92883H1.375C1.14294 3.92883 0.920376 4.02102 0.756282 4.18511C0.592187 4.34921 0.5 4.57177 0.5 4.80383C0.5 5.0359 0.592187 5.25846 0.756282 5.42255C0.920376 5.58665 1.14294 5.67883 1.375 5.67883H2.25V21.4288C2.25 21.893 2.43437 22.3381 2.76256 22.6663C3.09075 22.9945 3.53587 23.1788 4 23.1788H18C18.4641 23.1788 18.9092 22.9945 19.2374 22.6663C19.5656 22.3381 19.75 21.893 19.75 21.4288V5.67883H20.625C20.8571 5.67883 21.0796 5.58665 21.2437 5.42255C21.4078 5.25846 21.5 5.0359 21.5 4.80383C21.5 4.57177 21.4078 4.34921 21.2437 4.18511C21.0796 4.02102 20.8571 3.92883 20.625 3.92883ZM7.5 3.05383C7.5 2.82177 7.59219 2.59921 7.75628 2.43511C7.92038 2.27102 8.14294 2.17883 8.375 2.17883H13.625C13.8571 2.17883 14.0796 2.27102 14.2437 2.43511C14.4078 2.59921 14.5 2.82177 14.5 3.05383V3.92883H7.5V3.05383ZM18 21.4288H4V5.67883H18V21.4288ZM9.25 10.0538V17.0538C9.25 17.2859 9.15781 17.5085 8.99372 17.6726C8.82962 17.8366 8.60706 17.9288 8.375 17.9288C8.14294 17.9288 7.92038 17.8366 7.75628 17.6726C7.59219 17.5085 7.5 17.2859 7.5 17.0538V10.0538C7.5 9.82177 7.59219 9.59921 7.75628 9.43511C7.92038 9.27102 8.14294 9.17883 8.375 9.17883C8.60706 9.17883 8.82962 9.27102 8.99372 9.43511C9.15781 9.59921 9.25 9.82177 9.25 10.0538ZM14.5 10.0538V17.0538C14.5 17.2859 14.4078 17.5085 14.2437 17.6726C14.0796 17.8366 13.8571 17.9288 13.625 17.9288C13.3929 17.9288 13.1704 17.8366 13.0063 17.6726C12.8422 17.5085 12.75 17.2859 12.75 17.0538V10.0538C12.75 9.82177 12.8422 9.59921 13.0063 9.43511C13.1704 9.27102 13.3929 9.17883 13.625 9.17883C13.8571 9.17883 14.0796 9.27102 14.2437 9.43511C14.4078 9.59921 14.5 9.82177 14.5 10.0538Z" fill="black"/>
</svg>
