<svg width="20" height="23" viewBox="0 0 20 23" fill="none" xmlns="http://www.w3.org/2000/svg">
<path d="M18.9941 6.38094L12.8691 0.255938C12.7877 0.174708 12.6912 0.110296 12.585 0.0663809C12.4788 0.0224663 12.3649 -9.01126e-05 12.25 2.70549e-07H1.75C1.28587 2.70549e-07 0.840752 0.184375 0.512563 0.512563C0.184374 0.840752 0 1.28587 0 1.75V21C0 21.4641 0.184374 21.9092 0.512563 22.2374C0.840752 22.5656 1.28587 22.75 1.75 22.75H17.5C17.9641 22.75 18.4092 22.5656 18.7374 22.2374C19.0656 21.9092 19.25 21.4641 19.25 21V7C19.2501 6.88506 19.2275 6.77123 19.1836 6.66501C19.1397 6.55879 19.0753 6.46226 18.9941 6.38094ZM13.125 2.98703L16.263 6.125H13.125V2.98703ZM17.5 21H1.75V1.75H11.375V7C11.375 7.23206 11.4672 7.45462 11.6313 7.61872C11.7954 7.78281 12.0179 7.875 12.25 7.875H17.5V21ZM12.8691 14.2559C12.9504 14.3372 13.015 14.4337 13.059 14.5399C13.103 14.6462 13.1257 14.76 13.1257 14.875C13.1257 14.99 13.103 15.1038 13.059 15.2101C13.015 15.3163 12.9504 15.4128 12.8691 15.4941L10.2441 18.1191C10.1628 18.2004 10.0663 18.265 9.96007 18.309C9.85385 18.353 9.73999 18.3757 9.625 18.3757C9.51001 18.3757 9.39615 18.353 9.28993 18.309C9.1837 18.265 9.0872 18.2004 9.00594 18.1191L6.38094 15.4941C6.21675 15.3299 6.12451 15.1072 6.12451 14.875C6.12451 14.6428 6.21675 14.4201 6.38094 14.2559C6.54512 14.0918 6.76781 13.9995 7 13.9995C7.23219 13.9995 7.45488 14.0918 7.61906 14.2559L8.75 15.388V10.5C8.75 10.2679 8.84219 10.0454 9.00628 9.88128C9.17038 9.71719 9.39294 9.625 9.625 9.625C9.85706 9.625 10.0796 9.71719 10.2437 9.88128C10.4078 10.0454 10.5 10.2679 10.5 10.5V15.388L11.6309 14.2559C11.7122 14.1746 11.8087 14.11 11.9149 14.066C12.0212 14.022 12.135 13.9993 12.25 13.9993C12.365 13.9993 12.4788 14.022 12.5851 14.066C12.6913 14.11 12.7878 14.1746 12.8691 14.2559Z" fill="black"/>
</svg>
