<svg width="16" height="10" viewBox="0 0 16 10" fill="none" xmlns="http://www.w3.org/2000/svg">
<path d="M14.6922 2.44217L8.44217 8.69217C8.38412 8.75028 8.31519 8.79638 8.23932 8.82783C8.16344 8.85928 8.08212 8.87547 7.99998 8.87547C7.91785 8.87547 7.83652 8.85928 7.76064 8.82783C7.68477 8.79638 7.61584 8.75028 7.55779 8.69217L1.30779 2.44217C1.19052 2.32489 1.12463 2.16583 1.12463 1.99998C1.12463 1.83413 1.19052 1.67507 1.30779 1.55779C1.42507 1.44052 1.58413 1.37463 1.74998 1.37463C1.91583 1.37463 2.07489 1.44052 2.19217 1.55779L7.99998 7.36639L13.8078 1.55779C13.8659 1.49972 13.9348 1.45366 14.0107 1.42224C14.0865 1.39081 14.1679 1.37463 14.25 1.37463C14.3321 1.37463 14.4134 1.39081 14.4893 1.42224C14.5652 1.45366 14.6341 1.49972 14.6922 1.55779C14.7502 1.61586 14.7963 1.6848 14.8277 1.76067C14.8592 1.83654 14.8753 1.91786 14.8753 1.99998C14.8753 2.0821 14.8592 2.16342 14.8277 2.23929C14.7963 2.31516 14.7502 2.3841 14.6922 2.44217Z" fill="#1E1E1E" stroke="#1E1E1E"/>
</svg>
