<svg width="23" height="22" viewBox="0 0 23 22" fill="none" xmlns="http://www.w3.org/2000/svg">
<path d="M15.2308 7.81819H11.1591L9.84615 6.26648C9.77498 6.1817 9.69026 6.11448 9.59691 6.06873C9.50357 6.02298 9.40346 5.99962 9.3024 6H6.76923C6.56522 6 6.36956 6.09578 6.2253 6.26627C6.08104 6.43676 6 6.66799 6 6.9091V15.1261C6.00025 15.3578 6.07824 15.5799 6.21685 15.7437C6.35547 15.9075 6.54339 15.9997 6.73942 16H15.2736C15.4661 15.9997 15.6508 15.9092 15.7869 15.7482C15.9231 15.5873 15.9997 15.3691 16 15.1415V8.72728C16 8.48617 15.919 8.25494 15.7747 8.08445C15.6304 7.91396 15.4348 7.81819 15.2308 7.81819ZM6.76923 6.9091H9.3024L10.0716 7.81819H6.76923V6.9091ZM15.2308 15.0909H6.76923V8.72728H15.2308V15.0909Z" fill="#004F9C"/>
<circle cx="11" cy="11" r="11" fill="#3361CD" fill-opacity="0.36"/>
</svg>
