<svg width="53" height="49" viewBox="0 0 53 49" fill="none" xmlns="http://www.w3.org/2000/svg">
<ellipse cx="26.5" cy="24.5" rx="26.5" ry="24.5" fill="white"/>
<path d="M26.5 7.84375C22.8843 7.84375 19.3498 8.82062 16.3435 10.6508C13.3372 12.481 10.994 15.0824 9.61034 18.1259C8.22667 21.1695 7.86464 24.5185 8.57003 27.7495C9.27541 30.9805 11.0165 33.9483 13.5732 36.2777C16.1299 38.6072 19.3873 40.1935 22.9335 40.8362C26.4797 41.4789 30.1555 41.149 33.4959 39.8884C36.8364 38.6277 39.6915 36.4928 41.7003 33.7537C43.7091 31.0146 44.7813 27.7943 44.7813 24.5C44.7761 20.0839 42.8484 15.85 39.4212 12.7274C35.9939 9.60476 31.3469 7.84841 26.5 7.84375ZM17.0219 35.6309C18.0392 34.1813 19.4406 32.9883 21.0971 32.162C22.7535 31.3356 24.6115 30.9025 26.5 30.9025C28.3885 30.9025 30.2465 31.3356 31.903 32.162C33.5594 32.9883 34.9608 34.1813 35.9781 35.6309C33.2682 37.5511 29.9331 38.5936 26.5 38.5936C23.067 38.5936 19.7318 37.5511 17.0219 35.6309ZM20.875 23.2188C20.875 22.2051 21.2049 21.2143 21.823 20.3715C22.4411 19.5287 23.3196 18.8718 24.3474 18.4839C25.3752 18.096 26.5062 17.9945 27.5974 18.1922C28.6885 18.39 29.6908 18.8781 30.4775 19.5948C31.2642 20.3116 31.7999 21.2248 32.0169 22.2189C32.234 23.2131 32.1226 24.2435 31.6968 25.18C31.2711 26.1165 30.5501 26.9169 29.6251 27.48C28.7001 28.0432 27.6125 28.3438 26.5 28.3438C25.0082 28.3438 23.5774 27.8038 22.5225 26.8427C21.4676 25.8815 20.875 24.578 20.875 23.2188ZM38.0594 33.8547C36.491 31.784 34.2857 30.1821 31.7207 29.2502C33.0985 28.2615 34.1039 26.9062 34.5971 25.3727C35.0902 23.8392 35.0467 22.2038 34.4724 20.694C33.8982 19.1841 32.8218 17.8748 31.3929 16.9481C29.9641 16.0215 28.2539 15.5235 26.5 15.5235C24.7462 15.5235 23.0359 16.0215 21.6071 16.9481C20.1782 17.8748 19.1019 19.1841 18.5276 20.694C17.9534 22.2038 17.9098 23.8392 18.4029 25.3727C18.8961 26.9062 19.9015 28.2615 21.2793 29.2502C18.7143 30.1821 16.509 31.784 14.9406 33.8547C12.9588 31.8242 11.6635 29.315 11.2106 26.6293C10.7578 23.9436 11.1667 21.1958 12.3881 18.7169C13.6096 16.238 15.5915 14.1337 18.0952 12.6573C20.5989 11.1809 23.5177 10.3954 26.5 10.3954C29.4823 10.3954 32.4011 11.1809 34.9048 12.6573C37.4085 14.1337 39.3904 16.238 40.6119 18.7169C41.8333 21.1958 42.2422 23.9436 41.7894 26.6293C41.3365 29.315 40.0412 31.8242 38.0594 33.8547Z" fill="#1E1E1E"/>
</svg>
