<svg width="23" height="22" viewBox="0 0 23 22" fill="none" xmlns="http://www.w3.org/2000/svg">
<ellipse cx="11.5" cy="11" rx="11.5" ry="11" fill="#3361CD" fill-opacity="0.36"/>
<path d="M17.4055 11C17.4055 11.1287 17.3564 11.2521 17.2689 11.3431C17.1815 11.4341 17.0629 11.4853 16.9393 11.4853H12.2771V16.3382C12.2771 16.4669 12.228 16.5904 12.1406 16.6814C12.0531 16.7724 11.9346 16.8235 11.8109 16.8235C11.6873 16.8235 11.5687 16.7724 11.4812 16.6814C11.3938 16.5904 11.3447 16.4669 11.3447 16.3382V11.4853H6.68252C6.55888 11.4853 6.44029 11.4341 6.35286 11.3431C6.26543 11.2521 6.21631 11.1287 6.21631 11C6.21631 10.8713 6.26543 10.7478 6.35286 10.6568C6.44029 10.5658 6.55888 10.5147 6.68252 10.5147H11.3447V5.66175C11.3447 5.53304 11.3938 5.4096 11.4812 5.31859C11.5687 5.22758 11.6873 5.17645 11.8109 5.17645C11.9346 5.17645 12.0531 5.22758 12.1406 5.31859C12.228 5.4096 12.2771 5.53304 12.2771 5.66175V10.5147H16.9393C17.0629 10.5147 17.1815 10.5658 17.2689 10.6568C17.3564 10.7478 17.4055 10.8713 17.4055 11Z" fill="#3459B0"/>
</svg>
