<svg width="22" height="20" viewBox="0 0 22 20" fill="none" xmlns="http://www.w3.org/2000/svg">
<path d="M15.4815 8.33333H20.3704C20.8026 8.33333 21.2171 8.15774 21.5227 7.84518C21.8283 7.53262 22 7.10869 22 6.66667V1.66667C22 1.22464 21.8283 0.800716 21.5227 0.488155C21.2171 0.175595 20.8026 0 20.3704 0H15.4815C15.0493 0 14.6348 0.175595 14.3292 0.488155C14.0235 0.800716 13.8519 1.22464 13.8519 1.66667V3.33333H12.2222C11.5739 3.33333 10.9522 3.59673 10.4937 4.06557C10.0353 4.53441 9.77778 5.17029 9.77778 5.83333V9.16667H6.51852V8.33333C6.51852 7.89131 6.34683 7.46738 6.04121 7.15482C5.7356 6.84226 5.32109 6.66667 4.88889 6.66667H1.62963C1.19742 6.66667 0.782922 6.84226 0.477307 7.15482C0.171693 7.46738 0 7.89131 0 8.33333V11.6667C0 12.1087 0.171693 12.5326 0.477307 12.8452C0.782922 13.1577 1.19742 13.3333 1.62963 13.3333H4.88889C5.32109 13.3333 5.7356 13.1577 6.04121 12.8452C6.34683 12.5326 6.51852 12.1087 6.51852 11.6667V10.8333H9.77778V14.1667C9.77778 14.8297 10.0353 15.4656 10.4937 15.9344C10.9522 16.4033 11.5739 16.6667 12.2222 16.6667H13.8519V18.3333C13.8519 18.7754 14.0235 19.1993 14.3292 19.5118C14.6348 19.8244 15.0493 20 15.4815 20H20.3704C20.8026 20 21.2171 19.8244 21.5227 19.5118C21.8283 19.1993 22 18.7754 22 18.3333V13.3333C22 12.8913 21.8283 12.4674 21.5227 12.1548C21.2171 11.8423 20.8026 11.6667 20.3704 11.6667H15.4815C15.0493 11.6667 14.6348 11.8423 14.3292 12.1548C14.0235 12.4674 13.8519 12.8913 13.8519 13.3333V15H12.2222C12.0061 15 11.7989 14.9122 11.6461 14.7559C11.4933 14.5996 11.4074 14.3877 11.4074 14.1667V5.83333C11.4074 5.61232 11.4933 5.40036 11.6461 5.24408C11.7989 5.0878 12.0061 5 12.2222 5H13.8519V6.66667C13.8519 7.10869 14.0235 7.53262 14.3292 7.84518C14.6348 8.15774 15.0493 8.33333 15.4815 8.33333ZM4.88889 11.6667H1.62963V8.33333H4.88889V11.6667ZM15.4815 13.3333H20.3704V18.3333H15.4815V13.3333ZM15.4815 1.66667H20.3704V6.66667H15.4815V1.66667Z" fill="black"/>
</svg>
